<mxfile host="app.diagrams.net" agent="Mozilla/5.0 (Windows NT 10.0; Win64; x64) AppleWebKit/537.36 (KHTML, like Gecko) Chrome/140.0.0.0 Safari/537.36 Edg/140.0.0.0" version="28.2.5">
  <diagram name="Page-1" id="bVZXi5782uNr2SJDarwW">
    <mxGraphModel dx="1074" dy="783" grid="1" gridSize="10" guides="1" tooltips="1" connect="1" arrows="1" fold="1" page="1" pageScale="1" pageWidth="850" pageHeight="1100" math="0" shadow="0">
      <root>
        <mxCell id="0" />
        <mxCell id="1" parent="0" />
        <mxCell id="UztKaVl9DQna0vSrY_Vv-4" value="euw1-az2 (eu-west-1a)" style="points=[[0,0],[0.25,0],[0.5,0],[0.75,0],[1,0],[1,0.25],[1,0.5],[1,0.75],[1,1],[0.75,1],[0.5,1],[0.25,1],[0,1],[0,0.75],[0,0.5],[0,0.25]];outlineConnect=0;gradientColor=none;html=1;whiteSpace=wrap;fontSize=12;fontStyle=0;container=1;pointerEvents=0;collapsible=0;recursiveResize=0;shape=mxgraph.aws4.group;grIcon=mxgraph.aws4.group_region;strokeColor=#00A4A6;fillColor=none;verticalAlign=top;align=left;spacingLeft=30;fontColor=#147EBA;dashed=1;" vertex="1" parent="1">
          <mxGeometry x="40" y="170" width="780" height="610" as="geometry" />
        </mxCell>
        <mxCell id="UztKaVl9DQna0vSrY_Vv-5" value="VPC 10.50.0.0/16" style="points=[[0,0],[0.25,0],[0.5,0],[0.75,0],[1,0],[1,0.25],[1,0.5],[1,0.75],[1,1],[0.75,1],[0.5,1],[0.25,1],[0,1],[0,0.75],[0,0.5],[0,0.25]];outlineConnect=0;gradientColor=none;html=1;whiteSpace=wrap;fontSize=12;fontStyle=0;container=1;pointerEvents=0;collapsible=0;recursiveResize=0;shape=mxgraph.aws4.group;grIcon=mxgraph.aws4.group_vpc2;strokeColor=#8C4FFF;fillColor=none;verticalAlign=top;align=left;spacingLeft=30;fontColor=#AAB7B8;dashed=0;" vertex="1" parent="1">
          <mxGeometry x="70" y="210" width="730" height="550" as="geometry" />
        </mxCell>
        <mxCell id="UztKaVl9DQna0vSrY_Vv-6" value="Public subnet 1" style="points=[[0,0],[0.25,0],[0.5,0],[0.75,0],[1,0],[1,0.25],[1,0.5],[1,0.75],[1,1],[0.75,1],[0.5,1],[0.25,1],[0,1],[0,0.75],[0,0.5],[0,0.25]];outlineConnect=0;gradientColor=none;html=1;whiteSpace=wrap;fontSize=12;fontStyle=0;container=1;pointerEvents=0;collapsible=0;recursiveResize=0;shape=mxgraph.aws4.group;grIcon=mxgraph.aws4.group_security_group;grStroke=0;strokeColor=#7AA116;fillColor=#F2F6E8;verticalAlign=top;align=left;spacingLeft=30;fontColor=#248814;dashed=0;" vertex="1" parent="UztKaVl9DQna0vSrY_Vv-5">
          <mxGeometry x="30" y="60" width="150" height="130" as="geometry" />
        </mxCell>
        <mxCell id="UztKaVl9DQna0vSrY_Vv-9" value="10.50.1.0/26&lt;br&gt;255.255.255.192" style="text;html=1;align=center;verticalAlign=middle;whiteSpace=wrap;rounded=0;fillColor=#008a00;fontColor=#ffffff;strokeColor=#005700;" vertex="1" parent="UztKaVl9DQna0vSrY_Vv-6">
          <mxGeometry x="17.5" y="30" width="115" height="70" as="geometry" />
        </mxCell>
        <mxCell id="UztKaVl9DQna0vSrY_Vv-8" value="Public subnet 2" style="points=[[0,0],[0.25,0],[0.5,0],[0.75,0],[1,0],[1,0.25],[1,0.5],[1,0.75],[1,1],[0.75,1],[0.5,1],[0.25,1],[0,1],[0,0.75],[0,0.5],[0,0.25]];outlineConnect=0;gradientColor=none;html=1;whiteSpace=wrap;fontSize=12;fontStyle=0;container=1;pointerEvents=0;collapsible=0;recursiveResize=0;shape=mxgraph.aws4.group;grIcon=mxgraph.aws4.group_security_group;grStroke=0;strokeColor=#7AA116;fillColor=#F2F6E8;verticalAlign=top;align=left;spacingLeft=30;fontColor=#248814;dashed=0;" vertex="1" parent="UztKaVl9DQna0vSrY_Vv-5">
          <mxGeometry x="310" y="60" width="130" height="170" as="geometry" />
        </mxCell>
        <mxCell id="UztKaVl9DQna0vSrY_Vv-10" value="10.50.2.0/26&lt;br&gt;255.255.255.192" style="text;html=1;align=center;verticalAlign=middle;whiteSpace=wrap;rounded=0;fillColor=#008a00;fontColor=#ffffff;strokeColor=#005700;" vertex="1" parent="UztKaVl9DQna0vSrY_Vv-8">
          <mxGeometry x="7.5" y="30" width="115" height="70" as="geometry" />
        </mxCell>
        <mxCell id="UztKaVl9DQna0vSrY_Vv-7" value="Public subnet 3" style="points=[[0,0],[0.25,0],[0.5,0],[0.75,0],[1,0],[1,0.25],[1,0.5],[1,0.75],[1,1],[0.75,1],[0.5,1],[0.25,1],[0,1],[0,0.75],[0,0.5],[0,0.25]];outlineConnect=0;gradientColor=none;html=1;whiteSpace=wrap;fontSize=12;fontStyle=0;container=1;pointerEvents=0;collapsible=0;recursiveResize=0;shape=mxgraph.aws4.group;grIcon=mxgraph.aws4.group_security_group;grStroke=0;strokeColor=#7AA116;fillColor=#F2F6E8;verticalAlign=top;align=left;spacingLeft=30;fontColor=#248814;dashed=0;" vertex="1" parent="UztKaVl9DQna0vSrY_Vv-5">
          <mxGeometry x="550" y="60" width="130" height="130" as="geometry" />
        </mxCell>
        <mxCell id="UztKaVl9DQna0vSrY_Vv-12" value="10.50.3.0/26&lt;br&gt;255.255.255.192" style="text;html=1;align=center;verticalAlign=middle;whiteSpace=wrap;rounded=0;fillColor=#008a00;fontColor=#ffffff;strokeColor=#005700;" vertex="1" parent="UztKaVl9DQna0vSrY_Vv-7">
          <mxGeometry x="7.5" y="30" width="115" height="70" as="geometry" />
        </mxCell>
        <mxCell id="UztKaVl9DQna0vSrY_Vv-13" value="Private subnet" style="points=[[0,0],[0.25,0],[0.5,0],[0.75,0],[1,0],[1,0.25],[1,0.5],[1,0.75],[1,1],[0.75,1],[0.5,1],[0.25,1],[0,1],[0,0.75],[0,0.5],[0,0.25]];outlineConnect=0;gradientColor=none;html=1;whiteSpace=wrap;fontSize=12;fontStyle=0;container=1;pointerEvents=0;collapsible=0;recursiveResize=0;shape=mxgraph.aws4.group;grIcon=mxgraph.aws4.group_security_group;grStroke=0;strokeColor=#00A4A6;fillColor=#E6F6F7;verticalAlign=top;align=left;spacingLeft=30;fontColor=#147EBA;dashed=0;" vertex="1" parent="UztKaVl9DQna0vSrY_Vv-5">
          <mxGeometry x="30" y="220" width="130" height="130" as="geometry" />
        </mxCell>
        <mxCell id="UztKaVl9DQna0vSrY_Vv-19" value="10.50.100.0/26&lt;br&gt;255.255.255.192" style="text;html=1;align=center;verticalAlign=middle;whiteSpace=wrap;rounded=0;fillColor=#1ba1e2;fontColor=#ffffff;strokeColor=#006EAF;" vertex="1" parent="UztKaVl9DQna0vSrY_Vv-13">
          <mxGeometry x="10" y="30" width="120" height="70" as="geometry" />
        </mxCell>
        <mxCell id="UztKaVl9DQna0vSrY_Vv-18" value="Private subnet" style="points=[[0,0],[0.25,0],[0.5,0],[0.75,0],[1,0],[1,0.25],[1,0.5],[1,0.75],[1,1],[0.75,1],[0.5,1],[0.25,1],[0,1],[0,0.75],[0,0.5],[0,0.25]];outlineConnect=0;gradientColor=none;html=1;whiteSpace=wrap;fontSize=12;fontStyle=0;container=1;pointerEvents=0;collapsible=0;recursiveResize=0;shape=mxgraph.aws4.group;grIcon=mxgraph.aws4.group_security_group;grStroke=0;strokeColor=#00A4A6;fillColor=#E6F6F7;verticalAlign=top;align=left;spacingLeft=30;fontColor=#147EBA;dashed=0;" vertex="1" parent="UztKaVl9DQna0vSrY_Vv-5">
          <mxGeometry x="160" y="220" width="130" height="130" as="geometry" />
        </mxCell>
        <mxCell id="UztKaVl9DQna0vSrY_Vv-20" value="10.50.200.0/26&lt;br&gt;255.255.255.192" style="text;html=1;align=center;verticalAlign=middle;whiteSpace=wrap;rounded=0;fillColor=#1ba1e2;fontColor=#ffffff;strokeColor=#006EAF;" vertex="1" parent="UztKaVl9DQna0vSrY_Vv-18">
          <mxGeometry x="2.5" y="40" width="120" height="70" as="geometry" />
        </mxCell>
        <mxCell id="UztKaVl9DQna0vSrY_Vv-17" value="Private subnet" style="points=[[0,0],[0.25,0],[0.5,0],[0.75,0],[1,0],[1,0.25],[1,0.5],[1,0.75],[1,1],[0.75,1],[0.5,1],[0.25,1],[0,1],[0,0.75],[0,0.5],[0,0.25]];outlineConnect=0;gradientColor=none;html=1;whiteSpace=wrap;fontSize=12;fontStyle=0;container=1;pointerEvents=0;collapsible=0;recursiveResize=0;shape=mxgraph.aws4.group;grIcon=mxgraph.aws4.group_security_group;grStroke=0;strokeColor=#00A4A6;fillColor=#E6F6F7;verticalAlign=top;align=left;spacingLeft=30;fontColor=#147EBA;dashed=0;" vertex="1" parent="UztKaVl9DQna0vSrY_Vv-5">
          <mxGeometry x="410" y="220" width="130" height="130" as="geometry" />
        </mxCell>
        <mxCell id="UztKaVl9DQna0vSrY_Vv-22" value="10.50.400.0/26&lt;br&gt;255.255.255.192" style="text;html=1;align=center;verticalAlign=middle;whiteSpace=wrap;rounded=0;fillColor=#1ba1e2;fontColor=#ffffff;strokeColor=#006EAF;" vertex="1" parent="UztKaVl9DQna0vSrY_Vv-17">
          <mxGeometry y="40" width="120" height="70" as="geometry" />
        </mxCell>
        <mxCell id="UztKaVl9DQna0vSrY_Vv-16" value="Private subnet" style="points=[[0,0],[0.25,0],[0.5,0],[0.75,0],[1,0],[1,0.25],[1,0.5],[1,0.75],[1,1],[0.75,1],[0.5,1],[0.25,1],[0,1],[0,0.75],[0,0.5],[0,0.25]];outlineConnect=0;gradientColor=none;html=1;whiteSpace=wrap;fontSize=12;fontStyle=0;container=1;pointerEvents=0;collapsible=0;recursiveResize=0;shape=mxgraph.aws4.group;grIcon=mxgraph.aws4.group_security_group;grStroke=0;strokeColor=#00A4A6;fillColor=#E6F6F7;verticalAlign=top;align=left;spacingLeft=30;fontColor=#147EBA;dashed=0;" vertex="1" parent="UztKaVl9DQna0vSrY_Vv-5">
          <mxGeometry x="540" y="220" width="130" height="130" as="geometry" />
        </mxCell>
        <mxCell id="UztKaVl9DQna0vSrY_Vv-23" value="10.50.500.0/26&lt;br&gt;255.255.255.192" style="text;html=1;align=center;verticalAlign=middle;whiteSpace=wrap;rounded=0;fillColor=#1ba1e2;fontColor=#ffffff;strokeColor=#006EAF;" vertex="1" parent="UztKaVl9DQna0vSrY_Vv-16">
          <mxGeometry x="5" y="40" width="120" height="70" as="geometry" />
        </mxCell>
        <mxCell id="UztKaVl9DQna0vSrY_Vv-15" value="Private subnet" style="points=[[0,0],[0.25,0],[0.5,0],[0.75,0],[1,0],[1,0.25],[1,0.5],[1,0.75],[1,1],[0.75,1],[0.5,1],[0.25,1],[0,1],[0,0.75],[0,0.5],[0,0.25]];outlineConnect=0;gradientColor=none;html=1;whiteSpace=wrap;fontSize=12;fontStyle=0;container=1;pointerEvents=0;collapsible=0;recursiveResize=0;shape=mxgraph.aws4.group;grIcon=mxgraph.aws4.group_security_group;grStroke=0;strokeColor=#00A4A6;fillColor=#E6F6F7;verticalAlign=top;align=left;spacingLeft=30;fontColor=#147EBA;dashed=0;" vertex="1" parent="UztKaVl9DQna0vSrY_Vv-5">
          <mxGeometry x="100" y="350" width="130" height="130" as="geometry" />
        </mxCell>
        <mxCell id="UztKaVl9DQna0vSrY_Vv-21" value="10.50.300.0/26&lt;br&gt;255.255.255.192" style="text;html=1;align=center;verticalAlign=middle;whiteSpace=wrap;rounded=0;fillColor=#1ba1e2;fontColor=#ffffff;strokeColor=#006EAF;" vertex="1" parent="UztKaVl9DQna0vSrY_Vv-15">
          <mxGeometry x="5" y="30" width="120" height="70" as="geometry" />
        </mxCell>
        <mxCell id="UztKaVl9DQna0vSrY_Vv-14" value="Private subnet" style="points=[[0,0],[0.25,0],[0.5,0],[0.75,0],[1,0],[1,0.25],[1,0.5],[1,0.75],[1,1],[0.75,1],[0.5,1],[0.25,1],[0,1],[0,0.75],[0,0.5],[0,0.25]];outlineConnect=0;gradientColor=none;html=1;whiteSpace=wrap;fontSize=12;fontStyle=0;container=1;pointerEvents=0;collapsible=0;recursiveResize=0;shape=mxgraph.aws4.group;grIcon=mxgraph.aws4.group_security_group;grStroke=0;strokeColor=#00A4A6;fillColor=#E6F6F7;verticalAlign=top;align=left;spacingLeft=30;fontColor=#147EBA;dashed=0;" vertex="1" parent="UztKaVl9DQna0vSrY_Vv-5">
          <mxGeometry x="460" y="350" width="130" height="130" as="geometry" />
        </mxCell>
        <mxCell id="UztKaVl9DQna0vSrY_Vv-24" value="10.50.600.0/26&lt;br&gt;255.255.255.192" style="text;html=1;align=center;verticalAlign=middle;whiteSpace=wrap;rounded=0;fillColor=#1ba1e2;fontColor=#ffffff;strokeColor=#006EAF;" vertex="1" parent="UztKaVl9DQna0vSrY_Vv-14">
          <mxGeometry x="5" y="40" width="120" height="70" as="geometry" />
        </mxCell>
      </root>
    </mxGraphModel>
  </diagram>
</mxfile>
